<mxfile host="app.diagrams.net" modified="2023-01-22T16:51:47.206Z" agent="5.0 (Macintosh; Intel Mac OS X 10_15_7) AppleWebKit/537.36 (KHTML, like Gecko) Chrome/109.0.0.0 Safari/537.36 Edg/109.0.1518.61" etag="n6Asr70xFjbeefnG8h9t" version="20.8.10" type="github">
  <diagram id="V63KB-KYKJKaw1Z58SDV" name="Page-1">
    <mxGraphModel dx="2649" dy="1131" grid="0" gridSize="10" guides="1" tooltips="1" connect="1" arrows="1" fold="1" page="0" pageScale="1" pageWidth="850" pageHeight="1100" math="0" shadow="0">
      <root>
        <mxCell id="0" />
        <mxCell id="1" parent="0" />
        <mxCell id="dMn5n8a147cffpDs2WUU-1" style="edgeStyle=orthogonalEdgeStyle;rounded=0;orthogonalLoop=1;jettySize=auto;html=1;fontColor=#1726FF;endArrow=block;endFill=0;fillColor=#e1d5e7;strokeColor=#9673a6;" edge="1" parent="1" source="dMn5n8a147cffpDs2WUU-3" target="dMn5n8a147cffpDs2WUU-4">
          <mxGeometry relative="1" as="geometry" />
        </mxCell>
        <mxCell id="dMn5n8a147cffpDs2WUU-2" style="edgeStyle=orthogonalEdgeStyle;rounded=0;orthogonalLoop=1;jettySize=auto;html=1;fontColor=#1726FF;endArrow=classic;endFill=1;fillColor=#e1d5e7;strokeColor=#9673a6;" edge="1" parent="1" source="dMn5n8a147cffpDs2WUU-3" target="dMn5n8a147cffpDs2WUU-5">
          <mxGeometry relative="1" as="geometry" />
        </mxCell>
        <mxCell id="dMn5n8a147cffpDs2WUU-3" value="CatFactsList&lt;br&gt;ViewController" style="rounded=0;whiteSpace=wrap;html=1;fillColor=#e1d5e7;strokeColor=#9673a6;" vertex="1" parent="1">
          <mxGeometry x="-382" y="758" width="120" height="40" as="geometry" />
        </mxCell>
        <mxCell id="dMn5n8a147cffpDs2WUU-4" value="UIViewController" style="rounded=0;whiteSpace=wrap;html=1;fillColor=#d5e8d4;strokeColor=#82b366;" vertex="1" parent="1">
          <mxGeometry x="-382" y="828" width="120" height="40" as="geometry" />
        </mxCell>
        <mxCell id="dMn5n8a147cffpDs2WUU-15" value="" style="edgeStyle=orthogonalEdgeStyle;rounded=0;orthogonalLoop=1;jettySize=auto;html=1;strokeColor=#9673a6;fontColor=#1726FF;endFill=1;fillColor=#e1d5e7;" edge="1" parent="1" source="dMn5n8a147cffpDs2WUU-5" target="dMn5n8a147cffpDs2WUU-14">
          <mxGeometry relative="1" as="geometry" />
        </mxCell>
        <mxCell id="dMn5n8a147cffpDs2WUU-5" value="APIService" style="rounded=0;whiteSpace=wrap;html=1;fillColor=#e1d5e7;strokeColor=#9673a6;" vertex="1" parent="1">
          <mxGeometry x="-372" y="688" width="100" height="40" as="geometry" />
        </mxCell>
        <mxCell id="dMn5n8a147cffpDs2WUU-14" value="URLSession" style="rounded=0;whiteSpace=wrap;html=1;fillColor=#e1d5e7;strokeColor=#9673a6;" vertex="1" parent="1">
          <mxGeometry x="-372" y="618" width="100" height="40" as="geometry" />
        </mxCell>
        <mxCell id="dMn5n8a147cffpDs2WUU-25" style="edgeStyle=orthogonalEdgeStyle;rounded=0;orthogonalLoop=1;jettySize=auto;html=1;fontColor=#1726FF;endArrow=block;endFill=0;fillColor=#e1d5e7;strokeColor=#9673a6;" edge="1" source="dMn5n8a147cffpDs2WUU-27" target="dMn5n8a147cffpDs2WUU-28" parent="1">
          <mxGeometry relative="1" as="geometry" />
        </mxCell>
        <mxCell id="dMn5n8a147cffpDs2WUU-26" style="edgeStyle=orthogonalEdgeStyle;rounded=0;orthogonalLoop=1;jettySize=auto;html=1;fontColor=#1726FF;endArrow=classic;endFill=1;fillColor=#e1d5e7;strokeColor=#9673a6;" edge="1" source="dMn5n8a147cffpDs2WUU-27" target="dMn5n8a147cffpDs2WUU-30" parent="1">
          <mxGeometry relative="1" as="geometry" />
        </mxCell>
        <mxCell id="dMn5n8a147cffpDs2WUU-27" value="CatFactsList&lt;br&gt;ViewController" style="rounded=0;whiteSpace=wrap;html=1;fillColor=#e1d5e7;strokeColor=#9673a6;" vertex="1" parent="1">
          <mxGeometry x="207" y="753" width="120" height="40" as="geometry" />
        </mxCell>
        <mxCell id="dMn5n8a147cffpDs2WUU-28" value="UIViewController" style="rounded=0;whiteSpace=wrap;html=1;fillColor=#d5e8d4;strokeColor=#82b366;" vertex="1" parent="1">
          <mxGeometry x="207" y="823" width="120" height="40" as="geometry" />
        </mxCell>
        <mxCell id="dMn5n8a147cffpDs2WUU-29" value="" style="edgeStyle=orthogonalEdgeStyle;rounded=0;orthogonalLoop=1;jettySize=auto;html=1;strokeColor=#9673a6;fontColor=#1726FF;endFill=1;fillColor=#e1d5e7;" edge="1" source="dMn5n8a147cffpDs2WUU-30" target="dMn5n8a147cffpDs2WUU-31" parent="1">
          <mxGeometry relative="1" as="geometry" />
        </mxCell>
        <mxCell id="dMn5n8a147cffpDs2WUU-36" value="" style="edgeStyle=orthogonalEdgeStyle;rounded=0;orthogonalLoop=1;jettySize=auto;html=1;strokeColor=#9673a6;fontColor=#1726FF;endFill=1;fillColor=#e1d5e7;" edge="1" parent="1" source="dMn5n8a147cffpDs2WUU-30" target="dMn5n8a147cffpDs2WUU-32">
          <mxGeometry relative="1" as="geometry" />
        </mxCell>
        <mxCell id="dMn5n8a147cffpDs2WUU-30" value="CatFactLoader" style="rounded=0;whiteSpace=wrap;html=1;fillColor=#e1d5e7;strokeColor=#9673a6;" vertex="1" parent="1">
          <mxGeometry x="217" y="683" width="100" height="40" as="geometry" />
        </mxCell>
        <mxCell id="dMn5n8a147cffpDs2WUU-31" value="URLSession" style="rounded=0;whiteSpace=wrap;html=1;fillColor=#e1d5e7;strokeColor=#9673a6;" vertex="1" parent="1">
          <mxGeometry x="217" y="613" width="100" height="40" as="geometry" />
        </mxCell>
        <mxCell id="dMn5n8a147cffpDs2WUU-32" value="CatFacts&lt;br&gt;ItemMapper" style="rounded=0;whiteSpace=wrap;html=1;fillColor=#e1d5e7;strokeColor=#9673a6;" vertex="1" parent="1">
          <mxGeometry x="87" y="683" width="100" height="40" as="geometry" />
        </mxCell>
        <mxCell id="dMn5n8a147cffpDs2WUU-40" value="" style="edgeStyle=orthogonalEdgeStyle;rounded=0;orthogonalLoop=1;jettySize=auto;html=1;strokeColor=#9673a6;fontColor=#1726FF;endFill=1;fillColor=#e1d5e7;" edge="1" parent="1" source="dMn5n8a147cffpDs2WUU-38" target="dMn5n8a147cffpDs2WUU-32">
          <mxGeometry relative="1" as="geometry" />
        </mxCell>
        <mxCell id="dMn5n8a147cffpDs2WUU-38" value="RemoteCat&lt;br&gt;FactResponse" style="rounded=0;whiteSpace=wrap;html=1;fillColor=#e1d5e7;strokeColor=#9673a6;" vertex="1" parent="1">
          <mxGeometry x="87" y="613" width="100" height="40" as="geometry" />
        </mxCell>
        <mxCell id="dMn5n8a147cffpDs2WUU-46" style="edgeStyle=orthogonalEdgeStyle;rounded=0;orthogonalLoop=1;jettySize=auto;html=1;fontColor=#1726FF;endArrow=block;endFill=0;fillColor=#e1d5e7;strokeColor=#9673a6;" edge="1" parent="1" source="dMn5n8a147cffpDs2WUU-48" target="dMn5n8a147cffpDs2WUU-49">
          <mxGeometry relative="1" as="geometry" />
        </mxCell>
        <mxCell id="dMn5n8a147cffpDs2WUU-47" style="edgeStyle=orthogonalEdgeStyle;rounded=0;orthogonalLoop=1;jettySize=auto;html=1;fontColor=#1726FF;endArrow=classic;endFill=1;fillColor=#e1d5e7;strokeColor=#9673a6;" edge="1" parent="1" source="dMn5n8a147cffpDs2WUU-48" target="dMn5n8a147cffpDs2WUU-53">
          <mxGeometry relative="1" as="geometry" />
        </mxCell>
        <mxCell id="dMn5n8a147cffpDs2WUU-48" value="CatFactsList&lt;br&gt;ViewController" style="rounded=0;whiteSpace=wrap;html=1;fillColor=#e1d5e7;strokeColor=#9673a6;" vertex="1" parent="1">
          <mxGeometry x="111" y="1195" width="120" height="40" as="geometry" />
        </mxCell>
        <mxCell id="dMn5n8a147cffpDs2WUU-49" value="UIViewController" style="rounded=0;whiteSpace=wrap;html=1;fillColor=#d5e8d4;strokeColor=#82b366;" vertex="1" parent="1">
          <mxGeometry x="111" y="1265" width="120" height="40" as="geometry" />
        </mxCell>
        <mxCell id="dMn5n8a147cffpDs2WUU-50" value="" style="edgeStyle=orthogonalEdgeStyle;rounded=0;orthogonalLoop=1;jettySize=auto;html=1;strokeColor=#9673a6;fontColor=#1726FF;endFill=1;fillColor=#e1d5e7;" edge="1" parent="1" source="dMn5n8a147cffpDs2WUU-53" target="dMn5n8a147cffpDs2WUU-54">
          <mxGeometry relative="1" as="geometry" />
        </mxCell>
        <mxCell id="dMn5n8a147cffpDs2WUU-51" value="" style="edgeStyle=orthogonalEdgeStyle;rounded=0;orthogonalLoop=1;jettySize=auto;html=1;strokeColor=#9673a6;fontColor=#1726FF;endFill=1;fillColor=#e1d5e7;" edge="1" parent="1" source="dMn5n8a147cffpDs2WUU-53" target="dMn5n8a147cffpDs2WUU-56">
          <mxGeometry relative="1" as="geometry" />
        </mxCell>
        <mxCell id="dMn5n8a147cffpDs2WUU-53" value="CatFactLoader" style="rounded=0;whiteSpace=wrap;html=1;fillColor=#e1d5e7;strokeColor=#9673a6;" vertex="1" parent="1">
          <mxGeometry x="121" y="1125" width="100" height="40" as="geometry" />
        </mxCell>
        <mxCell id="dMn5n8a147cffpDs2WUU-54" value="URLSession" style="rounded=0;whiteSpace=wrap;html=1;fillColor=#e1d5e7;strokeColor=#9673a6;" vertex="1" parent="1">
          <mxGeometry x="121" y="1055" width="100" height="40" as="geometry" />
        </mxCell>
        <mxCell id="dMn5n8a147cffpDs2WUU-56" value="CatFacts&lt;br&gt;ItemMapper" style="rounded=0;whiteSpace=wrap;html=1;fillColor=#e1d5e7;strokeColor=#9673a6;" vertex="1" parent="1">
          <mxGeometry x="-9" y="1125" width="100" height="40" as="geometry" />
        </mxCell>
        <mxCell id="dMn5n8a147cffpDs2WUU-57" value="" style="edgeStyle=orthogonalEdgeStyle;rounded=0;orthogonalLoop=1;jettySize=auto;html=1;strokeColor=#9673a6;fontColor=#1726FF;endFill=1;fillColor=#e1d5e7;" edge="1" parent="1" source="dMn5n8a147cffpDs2WUU-58" target="dMn5n8a147cffpDs2WUU-56">
          <mxGeometry relative="1" as="geometry" />
        </mxCell>
        <mxCell id="dMn5n8a147cffpDs2WUU-58" value="RemoteCat&lt;br&gt;FactResponse" style="rounded=0;whiteSpace=wrap;html=1;fillColor=#e1d5e7;strokeColor=#9673a6;" vertex="1" parent="1">
          <mxGeometry x="-9" y="1055" width="100" height="40" as="geometry" />
        </mxCell>
        <mxCell id="dMn5n8a147cffpDs2WUU-62" style="edgeStyle=orthogonalEdgeStyle;rounded=0;orthogonalLoop=1;jettySize=auto;html=1;entryX=1;entryY=0.5;entryDx=0;entryDy=0;strokeColor=#9673a6;fontColor=#1726FF;endFill=1;fillColor=#e1d5e7;" edge="1" parent="1" source="dMn5n8a147cffpDs2WUU-60" target="dMn5n8a147cffpDs2WUU-53">
          <mxGeometry relative="1" as="geometry" />
        </mxCell>
        <mxCell id="dMn5n8a147cffpDs2WUU-60" value="CatFactLoader&lt;br&gt;LogDecorator" style="rounded=0;whiteSpace=wrap;html=1;fillColor=#e1d5e7;strokeColor=#9673a6;" vertex="1" parent="1">
          <mxGeometry x="271" y="1095" width="100" height="40" as="geometry" />
        </mxCell>
        <mxCell id="dMn5n8a147cffpDs2WUU-65" style="edgeStyle=orthogonalEdgeStyle;rounded=0;orthogonalLoop=1;jettySize=auto;html=1;entryX=1;entryY=0.75;entryDx=0;entryDy=0;strokeColor=#9673a6;fontColor=#1726FF;endFill=1;fillColor=#e1d5e7;" edge="1" parent="1" source="dMn5n8a147cffpDs2WUU-63" target="dMn5n8a147cffpDs2WUU-53">
          <mxGeometry relative="1" as="geometry" />
        </mxCell>
        <mxCell id="dMn5n8a147cffpDs2WUU-63" value="CatFactLoader&lt;br&gt;CacheDecorator" style="rounded=0;whiteSpace=wrap;html=1;fillColor=#e1d5e7;strokeColor=#9673a6;" vertex="1" parent="1">
          <mxGeometry x="271" y="1145" width="100" height="40" as="geometry" />
        </mxCell>
        <mxCell id="dMn5n8a147cffpDs2WUU-66" style="edgeStyle=orthogonalEdgeStyle;rounded=0;orthogonalLoop=1;jettySize=auto;html=1;fontColor=#1726FF;endArrow=block;endFill=0;fillColor=#e1d5e7;strokeColor=#9673a6;" edge="1" parent="1" source="dMn5n8a147cffpDs2WUU-68" target="dMn5n8a147cffpDs2WUU-69">
          <mxGeometry relative="1" as="geometry" />
        </mxCell>
        <mxCell id="dMn5n8a147cffpDs2WUU-67" style="edgeStyle=orthogonalEdgeStyle;rounded=0;orthogonalLoop=1;jettySize=auto;html=1;fontColor=#1726FF;endArrow=classic;endFill=1;fillColor=#e1d5e7;strokeColor=#9673a6;" edge="1" parent="1" source="dMn5n8a147cffpDs2WUU-68" target="dMn5n8a147cffpDs2WUU-73">
          <mxGeometry relative="1" as="geometry" />
        </mxCell>
        <mxCell id="dMn5n8a147cffpDs2WUU-68" value="CatFactsList&lt;br&gt;ViewController" style="rounded=0;whiteSpace=wrap;html=1;fillColor=#e1d5e7;strokeColor=#9673a6;" vertex="1" parent="1">
          <mxGeometry x="939" y="770" width="120" height="40" as="geometry" />
        </mxCell>
        <mxCell id="dMn5n8a147cffpDs2WUU-69" value="UIViewController" style="rounded=0;whiteSpace=wrap;html=1;fillColor=#d5e8d4;strokeColor=#82b366;" vertex="1" parent="1">
          <mxGeometry x="939" y="840" width="120" height="40" as="geometry" />
        </mxCell>
        <mxCell id="dMn5n8a147cffpDs2WUU-73" value="CatFactLoader" style="rounded=0;whiteSpace=wrap;html=1;fillColor=#e1d5e7;strokeColor=#9673a6;" vertex="1" parent="1">
          <mxGeometry x="949" y="700" width="100" height="40" as="geometry" />
        </mxCell>
        <mxCell id="dMn5n8a147cffpDs2WUU-74" value="URLSession" style="rounded=0;whiteSpace=wrap;html=1;fillColor=#e1d5e7;strokeColor=#9673a6;" vertex="1" parent="1">
          <mxGeometry x="949" y="630" width="100" height="40" as="geometry" />
        </mxCell>
        <mxCell id="dMn5n8a147cffpDs2WUU-76" value="CatFacts&lt;br&gt;ItemMapper" style="rounded=0;whiteSpace=wrap;html=1;fillColor=#e1d5e7;strokeColor=#9673a6;" vertex="1" parent="1">
          <mxGeometry x="819" y="700" width="100" height="40" as="geometry" />
        </mxCell>
        <mxCell id="dMn5n8a147cffpDs2WUU-77" value="" style="edgeStyle=orthogonalEdgeStyle;rounded=0;orthogonalLoop=1;jettySize=auto;html=1;strokeColor=#9673a6;fontColor=#1726FF;endFill=1;fillColor=#e1d5e7;" edge="1" parent="1" source="dMn5n8a147cffpDs2WUU-78" target="dMn5n8a147cffpDs2WUU-76">
          <mxGeometry relative="1" as="geometry" />
        </mxCell>
        <mxCell id="dMn5n8a147cffpDs2WUU-78" value="RemoteCat&lt;br&gt;FactResponse" style="rounded=0;whiteSpace=wrap;html=1;fillColor=#e1d5e7;strokeColor=#9673a6;" vertex="1" parent="1">
          <mxGeometry x="819" y="630" width="100" height="40" as="geometry" />
        </mxCell>
        <mxCell id="dMn5n8a147cffpDs2WUU-80" style="edgeStyle=orthogonalEdgeStyle;rounded=0;orthogonalLoop=1;jettySize=auto;html=1;entryX=1;entryY=0.5;entryDx=0;entryDy=0;strokeColor=#9673a6;fontColor=#1726FF;endFill=1;fillColor=#e1d5e7;" edge="1" parent="1" source="dMn5n8a147cffpDs2WUU-81" target="dMn5n8a147cffpDs2WUU-73">
          <mxGeometry relative="1" as="geometry" />
        </mxCell>
        <mxCell id="dMn5n8a147cffpDs2WUU-81" value="CatFactLoader&lt;br&gt;LogDecorator" style="rounded=0;whiteSpace=wrap;html=1;fillColor=#e1d5e7;strokeColor=#9673a6;" vertex="1" parent="1">
          <mxGeometry x="1099" y="670" width="100" height="40" as="geometry" />
        </mxCell>
        <mxCell id="dMn5n8a147cffpDs2WUU-82" style="edgeStyle=orthogonalEdgeStyle;rounded=0;orthogonalLoop=1;jettySize=auto;html=1;entryX=1;entryY=0.75;entryDx=0;entryDy=0;strokeColor=#9673a6;fontColor=#1726FF;endFill=1;fillColor=#e1d5e7;" edge="1" parent="1" source="dMn5n8a147cffpDs2WUU-83" target="dMn5n8a147cffpDs2WUU-73">
          <mxGeometry relative="1" as="geometry" />
        </mxCell>
        <mxCell id="dMn5n8a147cffpDs2WUU-83" value="CatFactLoader&lt;br&gt;CacheDecorator" style="rounded=0;whiteSpace=wrap;html=1;fillColor=#e1d5e7;strokeColor=#9673a6;" vertex="1" parent="1">
          <mxGeometry x="1099" y="720" width="100" height="40" as="geometry" />
        </mxCell>
        <mxCell id="dMn5n8a147cffpDs2WUU-91" style="edgeStyle=orthogonalEdgeStyle;rounded=0;orthogonalLoop=1;jettySize=auto;html=1;entryX=1;entryY=0.25;entryDx=0;entryDy=0;strokeColor=#9673a6;fontColor=#1726FF;endFill=1;fillColor=#e1d5e7;" edge="1" parent="1" source="dMn5n8a147cffpDs2WUU-84" target="dMn5n8a147cffpDs2WUU-73">
          <mxGeometry relative="1" as="geometry">
            <Array as="points">
              <mxPoint x="1069" y="640" />
              <mxPoint x="1069" y="710" />
            </Array>
          </mxGeometry>
        </mxCell>
        <mxCell id="dMn5n8a147cffpDs2WUU-84" value="JSONCatFact&lt;br&gt;Loader" style="rounded=0;whiteSpace=wrap;html=1;fillColor=#e1d5e7;strokeColor=#9673a6;" vertex="1" parent="1">
          <mxGeometry x="1099" y="620" width="100" height="40" as="geometry" />
        </mxCell>
        <mxCell id="dMn5n8a147cffpDs2WUU-88" style="edgeStyle=orthogonalEdgeStyle;rounded=0;orthogonalLoop=1;jettySize=auto;html=1;entryX=1;entryY=0.5;entryDx=0;entryDy=0;strokeColor=#9673a6;fontColor=#1726FF;endFill=1;fillColor=#e1d5e7;" edge="1" parent="1" source="dMn5n8a147cffpDs2WUU-87" target="dMn5n8a147cffpDs2WUU-84">
          <mxGeometry relative="1" as="geometry">
            <Array as="points">
              <mxPoint x="1219" y="530" />
              <mxPoint x="1219" y="640" />
            </Array>
          </mxGeometry>
        </mxCell>
        <mxCell id="dMn5n8a147cffpDs2WUU-116" style="edgeStyle=orthogonalEdgeStyle;rounded=0;orthogonalLoop=1;jettySize=auto;html=1;entryX=0;entryY=0.5;entryDx=0;entryDy=0;strokeColor=#9673a6;fontColor=#1726FF;endFill=1;fillColor=#e1d5e7;" edge="1" parent="1" source="dMn5n8a147cffpDs2WUU-87" target="dMn5n8a147cffpDs2WUU-115">
          <mxGeometry relative="1" as="geometry">
            <Array as="points">
              <mxPoint x="1079" y="530" />
              <mxPoint x="1079" y="580" />
            </Array>
          </mxGeometry>
        </mxCell>
        <mxCell id="dMn5n8a147cffpDs2WUU-87" value="CatFactLoader&lt;br&gt;FallbackComposite" style="rounded=0;whiteSpace=wrap;html=1;fillColor=#e1d5e7;strokeColor=#9673a6;" vertex="1" parent="1">
          <mxGeometry x="1094" y="510" width="110" height="40" as="geometry" />
        </mxCell>
        <mxCell id="dMn5n8a147cffpDs2WUU-117" style="edgeStyle=orthogonalEdgeStyle;rounded=0;orthogonalLoop=1;jettySize=auto;html=1;entryX=1;entryY=0;entryDx=0;entryDy=0;strokeColor=#9673a6;fontColor=#1726FF;endFill=1;fillColor=#e1d5e7;" edge="1" parent="1" source="dMn5n8a147cffpDs2WUU-115" target="dMn5n8a147cffpDs2WUU-73">
          <mxGeometry relative="1" as="geometry">
            <Array as="points">
              <mxPoint x="1149" y="612" />
              <mxPoint x="1059" y="612" />
              <mxPoint x="1059" y="700" />
            </Array>
          </mxGeometry>
        </mxCell>
        <mxCell id="dMn5n8a147cffpDs2WUU-143" style="edgeStyle=orthogonalEdgeStyle;rounded=0;orthogonalLoop=1;jettySize=auto;html=1;strokeColor=#9673a6;fontColor=#1726FF;endFill=1;fillColor=#e1d5e7;" edge="1" parent="1" source="dMn5n8a147cffpDs2WUU-115" target="dMn5n8a147cffpDs2WUU-74">
          <mxGeometry relative="1" as="geometry">
            <Array as="points">
              <mxPoint x="1024" y="595" />
            </Array>
          </mxGeometry>
        </mxCell>
        <mxCell id="dMn5n8a147cffpDs2WUU-144" style="edgeStyle=orthogonalEdgeStyle;rounded=0;orthogonalLoop=1;jettySize=auto;html=1;entryX=1;entryY=0.25;entryDx=0;entryDy=0;strokeColor=#9673a6;fontColor=#1726FF;endFill=1;fillColor=#e1d5e7;" edge="1" parent="1" source="dMn5n8a147cffpDs2WUU-115" target="dMn5n8a147cffpDs2WUU-76">
          <mxGeometry relative="1" as="geometry">
            <Array as="points">
              <mxPoint x="940" y="588" />
              <mxPoint x="940" y="710" />
            </Array>
          </mxGeometry>
        </mxCell>
        <mxCell id="dMn5n8a147cffpDs2WUU-115" value="RemoteCatFact&lt;br&gt;Loader" style="rounded=0;whiteSpace=wrap;html=1;fillColor=#e1d5e7;strokeColor=#9673a6;" vertex="1" parent="1">
          <mxGeometry x="1099" y="560" width="100" height="40" as="geometry" />
        </mxCell>
        <mxCell id="dMn5n8a147cffpDs2WUU-165" style="edgeStyle=orthogonalEdgeStyle;rounded=0;orthogonalLoop=1;jettySize=auto;html=1;fontColor=#1726FF;endArrow=block;endFill=0;fillColor=#e1d5e7;strokeColor=#9673a6;" edge="1" source="dMn5n8a147cffpDs2WUU-167" target="dMn5n8a147cffpDs2WUU-168" parent="1">
          <mxGeometry relative="1" as="geometry" />
        </mxCell>
        <mxCell id="dMn5n8a147cffpDs2WUU-166" style="edgeStyle=orthogonalEdgeStyle;rounded=0;orthogonalLoop=1;jettySize=auto;html=1;fontColor=#1726FF;endArrow=classic;endFill=1;fillColor=#e1d5e7;strokeColor=#9673a6;" edge="1" source="dMn5n8a147cffpDs2WUU-167" target="dMn5n8a147cffpDs2WUU-169" parent="1">
          <mxGeometry relative="1" as="geometry" />
        </mxCell>
        <mxCell id="dMn5n8a147cffpDs2WUU-167" value="CatFactsList&lt;br&gt;ViewController" style="rounded=0;whiteSpace=wrap;html=1;fillColor=#e1d5e7;strokeColor=#9673a6;" vertex="1" parent="1">
          <mxGeometry x="1840" y="745" width="120" height="40" as="geometry" />
        </mxCell>
        <mxCell id="dMn5n8a147cffpDs2WUU-168" value="UIViewController" style="rounded=0;whiteSpace=wrap;html=1;fillColor=#d5e8d4;strokeColor=#82b366;" vertex="1" parent="1">
          <mxGeometry x="1840" y="815" width="120" height="40" as="geometry" />
        </mxCell>
        <mxCell id="dMn5n8a147cffpDs2WUU-169" value="&amp;lt;CatFactLoader&amp;gt;" style="rounded=0;whiteSpace=wrap;html=1;fillColor=#dae8fc;strokeColor=#6c8ebf;" vertex="1" parent="1">
          <mxGeometry x="1850" y="675" width="100" height="40" as="geometry" />
        </mxCell>
        <mxCell id="dMn5n8a147cffpDs2WUU-170" value="URLSession" style="rounded=0;whiteSpace=wrap;html=1;fillColor=#ffe6cc;strokeColor=#d79b00;" vertex="1" parent="1">
          <mxGeometry x="1703" y="650" width="100" height="40" as="geometry" />
        </mxCell>
        <mxCell id="dMn5n8a147cffpDs2WUU-171" value="CatFacts&lt;br&gt;ItemMapper" style="rounded=0;whiteSpace=wrap;html=1;fillColor=#ffe6cc;strokeColor=#d79b00;" vertex="1" parent="1">
          <mxGeometry x="1573" y="570" width="100" height="40" as="geometry" />
        </mxCell>
        <mxCell id="dMn5n8a147cffpDs2WUU-172" value="" style="edgeStyle=orthogonalEdgeStyle;rounded=0;orthogonalLoop=1;jettySize=auto;html=1;strokeColor=#d79b00;fontColor=#1726FF;endFill=1;fillColor=#ffe6cc;" edge="1" source="dMn5n8a147cffpDs2WUU-173" target="dMn5n8a147cffpDs2WUU-171" parent="1">
          <mxGeometry relative="1" as="geometry" />
        </mxCell>
        <mxCell id="dMn5n8a147cffpDs2WUU-173" value="RemoteCat&lt;br&gt;FactResponse" style="rounded=0;whiteSpace=wrap;html=1;fillColor=#ffe6cc;strokeColor=#d79b00;" vertex="1" parent="1">
          <mxGeometry x="1573" y="649" width="100" height="40" as="geometry" />
        </mxCell>
        <mxCell id="dMn5n8a147cffpDs2WUU-224" style="edgeStyle=orthogonalEdgeStyle;rounded=0;orthogonalLoop=1;jettySize=auto;html=1;entryX=0.25;entryY=0;entryDx=0;entryDy=0;endArrow=block;endFill=0;strokeColor=#666666;dashed=1;fillColor=#f5f5f5;" edge="1" parent="1" source="dMn5n8a147cffpDs2WUU-175" target="dMn5n8a147cffpDs2WUU-169">
          <mxGeometry relative="1" as="geometry" />
        </mxCell>
        <mxCell id="dMn5n8a147cffpDs2WUU-175" value="CatFactLoader&lt;br&gt;LogDecorator" style="rounded=0;whiteSpace=wrap;html=1;fillColor=#f5f5f5;strokeColor=#666666;fontColor=#333333;" vertex="1" parent="1">
          <mxGeometry x="1703" y="485" width="100" height="40" as="geometry" />
        </mxCell>
        <mxCell id="dMn5n8a147cffpDs2WUU-223" style="edgeStyle=orthogonalEdgeStyle;rounded=0;orthogonalLoop=1;jettySize=auto;html=1;endArrow=block;endFill=0;strokeColor=#666666;dashed=1;fillColor=#f5f5f5;" edge="1" parent="1" source="dMn5n8a147cffpDs2WUU-177" target="dMn5n8a147cffpDs2WUU-169">
          <mxGeometry relative="1" as="geometry" />
        </mxCell>
        <mxCell id="dMn5n8a147cffpDs2WUU-177" value="CatFactLoader&lt;br&gt;CacheDecorator" style="rounded=0;whiteSpace=wrap;html=1;fillColor=#f5f5f5;strokeColor=#666666;fontColor=#333333;" vertex="1" parent="1">
          <mxGeometry x="1703" y="430" width="100" height="40" as="geometry" />
        </mxCell>
        <mxCell id="dMn5n8a147cffpDs2WUU-222" style="edgeStyle=orthogonalEdgeStyle;rounded=0;orthogonalLoop=1;jettySize=auto;html=1;entryX=0.75;entryY=0;entryDx=0;entryDy=0;endArrow=block;endFill=0;strokeColor=#b85450;dashed=1;fillColor=#f8cecc;" edge="1" parent="1" source="dMn5n8a147cffpDs2WUU-179" target="dMn5n8a147cffpDs2WUU-169">
          <mxGeometry relative="1" as="geometry" />
        </mxCell>
        <mxCell id="dMn5n8a147cffpDs2WUU-179" value="JSONCatFact&lt;br&gt;Loader" style="rounded=0;whiteSpace=wrap;html=1;fillColor=#f8cecc;strokeColor=#b85450;" vertex="1" parent="1">
          <mxGeometry x="1979" y="610" width="100" height="40" as="geometry" />
        </mxCell>
        <mxCell id="dMn5n8a147cffpDs2WUU-225" style="edgeStyle=orthogonalEdgeStyle;rounded=0;orthogonalLoop=1;jettySize=auto;html=1;endArrow=block;endFill=0;entryX=0.631;entryY=-0.005;entryDx=0;entryDy=0;entryPerimeter=0;dashed=1;" edge="1" parent="1" source="dMn5n8a147cffpDs2WUU-182" target="dMn5n8a147cffpDs2WUU-169">
          <mxGeometry relative="1" as="geometry">
            <mxPoint x="1926.5757575757575" y="646.3030303030303" as="targetPoint" />
            <Array as="points">
              <mxPoint x="1913" y="401" />
            </Array>
          </mxGeometry>
        </mxCell>
        <mxCell id="dMn5n8a147cffpDs2WUU-252" style="edgeStyle=orthogonalEdgeStyle;rounded=0;orthogonalLoop=1;jettySize=auto;html=1;entryX=0.5;entryY=0;entryDx=0;entryDy=0;endArrow=classic;endFill=1;" edge="1" parent="1" source="dMn5n8a147cffpDs2WUU-182" target="dMn5n8a147cffpDs2WUU-186">
          <mxGeometry relative="1" as="geometry">
            <Array as="points">
              <mxPoint x="1678" y="401" />
              <mxPoint x="1678" y="548" />
              <mxPoint x="1753" y="548" />
            </Array>
          </mxGeometry>
        </mxCell>
        <mxCell id="dMn5n8a147cffpDs2WUU-253" style="edgeStyle=orthogonalEdgeStyle;rounded=0;orthogonalLoop=1;jettySize=auto;html=1;endArrow=classic;endFill=1;" edge="1" parent="1" source="dMn5n8a147cffpDs2WUU-182" target="dMn5n8a147cffpDs2WUU-179">
          <mxGeometry relative="1" as="geometry">
            <Array as="points">
              <mxPoint x="2029" y="391" />
            </Array>
          </mxGeometry>
        </mxCell>
        <mxCell id="dMn5n8a147cffpDs2WUU-182" value="CatFactLoader&lt;br&gt;FallbackComposite" style="rounded=0;whiteSpace=wrap;html=1;" vertex="1" parent="1">
          <mxGeometry x="1698" y="381" width="110" height="40" as="geometry" />
        </mxCell>
        <mxCell id="dMn5n8a147cffpDs2WUU-187" style="edgeStyle=orthogonalEdgeStyle;rounded=0;orthogonalLoop=1;jettySize=auto;html=1;entryX=0.5;entryY=0;entryDx=0;entryDy=0;endArrow=classic;endFill=1;fillColor=#ffe6cc;strokeColor=#d79b00;fontColor=#1726FF;" edge="1" parent="1" source="dMn5n8a147cffpDs2WUU-186" target="dMn5n8a147cffpDs2WUU-170">
          <mxGeometry relative="1" as="geometry" />
        </mxCell>
        <mxCell id="dMn5n8a147cffpDs2WUU-217" style="edgeStyle=orthogonalEdgeStyle;rounded=0;orthogonalLoop=1;jettySize=auto;html=1;entryX=0;entryY=0.5;entryDx=0;entryDy=0;endArrow=block;endFill=0;dashed=1;fillColor=#ffe6cc;strokeColor=#d79b00;" edge="1" parent="1" source="dMn5n8a147cffpDs2WUU-186" target="dMn5n8a147cffpDs2WUU-169">
          <mxGeometry relative="1" as="geometry" />
        </mxCell>
        <mxCell id="dMn5n8a147cffpDs2WUU-218" value="" style="edgeStyle=orthogonalEdgeStyle;rounded=0;orthogonalLoop=1;jettySize=auto;html=1;endArrow=classic;endFill=1;strokeColor=#d79b00;fontColor=#1726FF;fillColor=#ffe6cc;" edge="1" parent="1" source="dMn5n8a147cffpDs2WUU-186" target="dMn5n8a147cffpDs2WUU-171">
          <mxGeometry relative="1" as="geometry" />
        </mxCell>
        <mxCell id="dMn5n8a147cffpDs2WUU-186" value="RemoteCatFact&lt;br&gt;Loader" style="rounded=0;whiteSpace=wrap;html=1;fillColor=#ffe6cc;strokeColor=#d79b00;" vertex="1" parent="1">
          <mxGeometry x="1703" y="570" width="100" height="40" as="geometry" />
        </mxCell>
        <mxCell id="dMn5n8a147cffpDs2WUU-226" style="edgeStyle=orthogonalEdgeStyle;rounded=0;orthogonalLoop=1;jettySize=auto;html=1;fontColor=#1726FF;endArrow=block;endFill=0;fillColor=#e1d5e7;strokeColor=#9673a6;" edge="1" source="dMn5n8a147cffpDs2WUU-228" target="dMn5n8a147cffpDs2WUU-229" parent="1">
          <mxGeometry relative="1" as="geometry" />
        </mxCell>
        <mxCell id="dMn5n8a147cffpDs2WUU-227" style="edgeStyle=orthogonalEdgeStyle;rounded=0;orthogonalLoop=1;jettySize=auto;html=1;fontColor=#1726FF;endArrow=classic;endFill=1;fillColor=#e1d5e7;strokeColor=#9673a6;" edge="1" source="dMn5n8a147cffpDs2WUU-228" target="dMn5n8a147cffpDs2WUU-230" parent="1">
          <mxGeometry relative="1" as="geometry" />
        </mxCell>
        <mxCell id="dMn5n8a147cffpDs2WUU-228" value="CatFactsList&lt;br&gt;ViewController" style="rounded=0;whiteSpace=wrap;html=1;fillColor=#e1d5e7;strokeColor=#9673a6;" vertex="1" parent="1">
          <mxGeometry x="1835" y="1441" width="120" height="40" as="geometry" />
        </mxCell>
        <mxCell id="dMn5n8a147cffpDs2WUU-229" value="UIViewController" style="rounded=0;whiteSpace=wrap;html=1;fillColor=#d5e8d4;strokeColor=#82b366;" vertex="1" parent="1">
          <mxGeometry x="1835" y="1511" width="120" height="40" as="geometry" />
        </mxCell>
        <mxCell id="dMn5n8a147cffpDs2WUU-230" value="&amp;lt;CatFactLoader&amp;gt;" style="rounded=0;whiteSpace=wrap;html=1;fillColor=#dae8fc;strokeColor=#6c8ebf;" vertex="1" parent="1">
          <mxGeometry x="1845" y="1371" width="100" height="40" as="geometry" />
        </mxCell>
        <mxCell id="dMn5n8a147cffpDs2WUU-231" value="&amp;lt;HTTPClient&amp;gt;" style="rounded=0;whiteSpace=wrap;html=1;fillColor=#ffe6cc;strokeColor=#d79b00;" vertex="1" parent="1">
          <mxGeometry x="1698" y="1346" width="100" height="40" as="geometry" />
        </mxCell>
        <mxCell id="dMn5n8a147cffpDs2WUU-232" value="CatFacts&lt;br&gt;ItemMapper" style="rounded=0;whiteSpace=wrap;html=1;fillColor=#ffe6cc;strokeColor=#d79b00;" vertex="1" parent="1">
          <mxGeometry x="1568" y="1266" width="100" height="40" as="geometry" />
        </mxCell>
        <mxCell id="dMn5n8a147cffpDs2WUU-233" value="" style="edgeStyle=orthogonalEdgeStyle;rounded=0;orthogonalLoop=1;jettySize=auto;html=1;strokeColor=#d79b00;fontColor=#1726FF;endFill=1;fillColor=#ffe6cc;" edge="1" source="dMn5n8a147cffpDs2WUU-234" target="dMn5n8a147cffpDs2WUU-232" parent="1">
          <mxGeometry relative="1" as="geometry" />
        </mxCell>
        <mxCell id="dMn5n8a147cffpDs2WUU-234" value="RemoteCat&lt;br&gt;FactResponse" style="rounded=0;whiteSpace=wrap;html=1;fillColor=#ffe6cc;strokeColor=#d79b00;" vertex="1" parent="1">
          <mxGeometry x="1568" y="1345" width="100" height="40" as="geometry" />
        </mxCell>
        <mxCell id="dMn5n8a147cffpDs2WUU-235" style="edgeStyle=orthogonalEdgeStyle;rounded=0;orthogonalLoop=1;jettySize=auto;html=1;entryX=0.25;entryY=0;entryDx=0;entryDy=0;endArrow=block;endFill=0;strokeColor=#666666;dashed=1;fillColor=#f5f5f5;" edge="1" source="dMn5n8a147cffpDs2WUU-236" target="dMn5n8a147cffpDs2WUU-230" parent="1">
          <mxGeometry relative="1" as="geometry" />
        </mxCell>
        <mxCell id="dMn5n8a147cffpDs2WUU-236" value="CatFactLoader&lt;br&gt;LogDecorator" style="rounded=0;whiteSpace=wrap;html=1;fillColor=#f5f5f5;strokeColor=#666666;fontColor=#333333;" vertex="1" parent="1">
          <mxGeometry x="1698" y="1181" width="100" height="40" as="geometry" />
        </mxCell>
        <mxCell id="dMn5n8a147cffpDs2WUU-237" style="edgeStyle=orthogonalEdgeStyle;rounded=0;orthogonalLoop=1;jettySize=auto;html=1;endArrow=block;endFill=0;strokeColor=#666666;dashed=1;fillColor=#f5f5f5;" edge="1" source="dMn5n8a147cffpDs2WUU-238" target="dMn5n8a147cffpDs2WUU-230" parent="1">
          <mxGeometry relative="1" as="geometry" />
        </mxCell>
        <mxCell id="dMn5n8a147cffpDs2WUU-238" value="CatFactLoader&lt;br&gt;CacheDecorator" style="rounded=0;whiteSpace=wrap;html=1;fillColor=#f5f5f5;strokeColor=#666666;fontColor=#333333;" vertex="1" parent="1">
          <mxGeometry x="1698" y="1126" width="100" height="40" as="geometry" />
        </mxCell>
        <mxCell id="dMn5n8a147cffpDs2WUU-239" style="edgeStyle=orthogonalEdgeStyle;rounded=0;orthogonalLoop=1;jettySize=auto;html=1;entryX=0.75;entryY=0;entryDx=0;entryDy=0;endArrow=block;endFill=0;strokeColor=#b85450;dashed=1;fillColor=#f8cecc;" edge="1" source="dMn5n8a147cffpDs2WUU-240" target="dMn5n8a147cffpDs2WUU-230" parent="1">
          <mxGeometry relative="1" as="geometry" />
        </mxCell>
        <mxCell id="dMn5n8a147cffpDs2WUU-240" value="JSONCatFact&lt;br&gt;Loader" style="rounded=0;whiteSpace=wrap;html=1;fillColor=#f8cecc;strokeColor=#b85450;" vertex="1" parent="1">
          <mxGeometry x="1974" y="1306" width="100" height="40" as="geometry" />
        </mxCell>
        <mxCell id="dMn5n8a147cffpDs2WUU-241" style="edgeStyle=orthogonalEdgeStyle;rounded=0;orthogonalLoop=1;jettySize=auto;html=1;endArrow=block;endFill=0;entryX=0.631;entryY=-0.005;entryDx=0;entryDy=0;entryPerimeter=0;dashed=1;" edge="1" source="dMn5n8a147cffpDs2WUU-242" target="dMn5n8a147cffpDs2WUU-230" parent="1">
          <mxGeometry relative="1" as="geometry">
            <mxPoint x="1921.5757575757575" y="1342.3030303030303" as="targetPoint" />
            <Array as="points">
              <mxPoint x="1908" y="1097" />
            </Array>
          </mxGeometry>
        </mxCell>
        <mxCell id="dMn5n8a147cffpDs2WUU-254" style="edgeStyle=orthogonalEdgeStyle;rounded=0;orthogonalLoop=1;jettySize=auto;html=1;entryX=0.5;entryY=0;entryDx=0;entryDy=0;endArrow=classic;endFill=1;" edge="1" parent="1" source="dMn5n8a147cffpDs2WUU-242" target="dMn5n8a147cffpDs2WUU-246">
          <mxGeometry relative="1" as="geometry">
            <Array as="points">
              <mxPoint x="1671" y="1097" />
              <mxPoint x="1671" y="1243" />
              <mxPoint x="1748" y="1243" />
            </Array>
          </mxGeometry>
        </mxCell>
        <mxCell id="dMn5n8a147cffpDs2WUU-255" style="edgeStyle=orthogonalEdgeStyle;rounded=0;orthogonalLoop=1;jettySize=auto;html=1;endArrow=classic;endFill=1;" edge="1" parent="1" source="dMn5n8a147cffpDs2WUU-242" target="dMn5n8a147cffpDs2WUU-240">
          <mxGeometry relative="1" as="geometry">
            <Array as="points">
              <mxPoint x="2024" y="1088" />
            </Array>
          </mxGeometry>
        </mxCell>
        <mxCell id="dMn5n8a147cffpDs2WUU-242" value="CatFactLoader&lt;br&gt;FallbackComposite" style="rounded=0;whiteSpace=wrap;html=1;" vertex="1" parent="1">
          <mxGeometry x="1693" y="1077" width="110" height="40" as="geometry" />
        </mxCell>
        <mxCell id="dMn5n8a147cffpDs2WUU-243" style="edgeStyle=orthogonalEdgeStyle;rounded=0;orthogonalLoop=1;jettySize=auto;html=1;entryX=0.5;entryY=0;entryDx=0;entryDy=0;endArrow=classic;endFill=1;fillColor=#ffe6cc;strokeColor=#d79b00;fontColor=#1726FF;" edge="1" source="dMn5n8a147cffpDs2WUU-246" target="dMn5n8a147cffpDs2WUU-231" parent="1">
          <mxGeometry relative="1" as="geometry" />
        </mxCell>
        <mxCell id="dMn5n8a147cffpDs2WUU-244" style="edgeStyle=orthogonalEdgeStyle;rounded=0;orthogonalLoop=1;jettySize=auto;html=1;entryX=0;entryY=0.5;entryDx=0;entryDy=0;endArrow=block;endFill=0;dashed=1;fillColor=#ffe6cc;strokeColor=#d79b00;" edge="1" source="dMn5n8a147cffpDs2WUU-246" target="dMn5n8a147cffpDs2WUU-230" parent="1">
          <mxGeometry relative="1" as="geometry" />
        </mxCell>
        <mxCell id="dMn5n8a147cffpDs2WUU-245" value="" style="edgeStyle=orthogonalEdgeStyle;rounded=0;orthogonalLoop=1;jettySize=auto;html=1;endArrow=classic;endFill=1;strokeColor=#d79b00;fontColor=#1726FF;fillColor=#ffe6cc;" edge="1" source="dMn5n8a147cffpDs2WUU-246" target="dMn5n8a147cffpDs2WUU-232" parent="1">
          <mxGeometry relative="1" as="geometry" />
        </mxCell>
        <mxCell id="dMn5n8a147cffpDs2WUU-246" value="RemoteCatFact&lt;br&gt;Loader" style="rounded=0;whiteSpace=wrap;html=1;fillColor=#ffe6cc;strokeColor=#d79b00;" vertex="1" parent="1">
          <mxGeometry x="1698" y="1266" width="100" height="40" as="geometry" />
        </mxCell>
        <mxCell id="dMn5n8a147cffpDs2WUU-249" style="edgeStyle=orthogonalEdgeStyle;rounded=0;orthogonalLoop=1;jettySize=auto;html=1;entryX=0.25;entryY=1;entryDx=0;entryDy=0;endArrow=block;endFill=0;strokeColor=#d79b00;dashed=1;fillColor=#ffe6cc;" edge="1" parent="1" source="dMn5n8a147cffpDs2WUU-247" target="dMn5n8a147cffpDs2WUU-231">
          <mxGeometry relative="1" as="geometry">
            <Array as="points">
              <mxPoint x="1653" y="1403" />
              <mxPoint x="1723" y="1403" />
            </Array>
          </mxGeometry>
        </mxCell>
        <mxCell id="dMn5n8a147cffpDs2WUU-247" value="URLSession&lt;br&gt;HTTPClient" style="rounded=0;whiteSpace=wrap;html=1;fillColor=#ffe6cc;strokeColor=#d79b00;" vertex="1" parent="1">
          <mxGeometry x="1590" y="1441" width="100" height="40" as="geometry" />
        </mxCell>
        <mxCell id="dMn5n8a147cffpDs2WUU-250" style="edgeStyle=orthogonalEdgeStyle;rounded=0;orthogonalLoop=1;jettySize=auto;html=1;entryX=0.5;entryY=1;entryDx=0;entryDy=0;endArrow=block;endFill=0;strokeColor=#d79b00;dashed=1;fillColor=#ffe6cc;" edge="1" parent="1" source="dMn5n8a147cffpDs2WUU-248" target="dMn5n8a147cffpDs2WUU-231">
          <mxGeometry relative="1" as="geometry" />
        </mxCell>
        <mxCell id="dMn5n8a147cffpDs2WUU-248" value="Alamofire&lt;br&gt;HTTPClient" style="rounded=0;whiteSpace=wrap;html=1;fillColor=#ffe6cc;strokeColor=#d79b00;" vertex="1" parent="1">
          <mxGeometry x="1698" y="1441" width="100" height="40" as="geometry" />
        </mxCell>
        <mxCell id="dMn5n8a147cffpDs2WUU-256" value="Monolith" style="text;html=1;strokeColor=none;fillColor=none;align=center;verticalAlign=middle;whiteSpace=wrap;rounded=0;fontStyle=1;fontSize=50;" vertex="1" parent="1">
          <mxGeometry x="-545" y="533" width="219" height="57" as="geometry" />
        </mxCell>
        <mxCell id="dMn5n8a147cffpDs2WUU-257" value="SRP" style="text;html=1;strokeColor=none;fillColor=none;align=center;verticalAlign=middle;whiteSpace=wrap;rounded=0;fontStyle=1;fontSize=50;" vertex="1" parent="1">
          <mxGeometry x="-38" y="530" width="219" height="57" as="geometry" />
        </mxCell>
        <mxCell id="dMn5n8a147cffpDs2WUU-258" value="OCP" style="text;html=1;strokeColor=none;fillColor=none;align=center;verticalAlign=middle;whiteSpace=wrap;rounded=0;fontStyle=1;fontSize=50;" vertex="1" parent="1">
          <mxGeometry x="-68.5" y="974" width="219" height="57" as="geometry" />
        </mxCell>
        <mxCell id="dMn5n8a147cffpDs2WUU-259" value="LSP" style="text;html=1;strokeColor=none;fillColor=none;align=center;verticalAlign=middle;whiteSpace=wrap;rounded=0;fontStyle=1;fontSize=50;" vertex="1" parent="1">
          <mxGeometry x="745" y="510" width="219" height="57" as="geometry" />
        </mxCell>
        <mxCell id="dMn5n8a147cffpDs2WUU-260" value="ISP" style="text;html=1;strokeColor=none;fillColor=none;align=center;verticalAlign=middle;whiteSpace=wrap;rounded=0;fontStyle=1;fontSize=50;" vertex="1" parent="1">
          <mxGeometry x="1450" y="460" width="219" height="57" as="geometry" />
        </mxCell>
        <mxCell id="dMn5n8a147cffpDs2WUU-261" value="DIP" style="text;html=1;strokeColor=none;fillColor=none;align=center;verticalAlign=middle;whiteSpace=wrap;rounded=0;fontStyle=1;fontSize=50;" vertex="1" parent="1">
          <mxGeometry x="1444" y="1128" width="219" height="57" as="geometry" />
        </mxCell>
      </root>
    </mxGraphModel>
  </diagram>
</mxfile>
